<svg xmlns="http://www.w3.org/2000/svg" xmlns:xlink="http://www.w3.org/1999/xlink" width="1200" height="360" viewBox="0 0 1200 360">
  <defs>
    <!-- Tech background gradient -->
    <radialGradient id="bg" cx="50%" cy="50%" r="70%">
      <stop offset="0%" stop-color="#1a1f3a"/>
      <stop offset="50%" stop-color="#0f1429"/>
      <stop offset="100%" stop-color="#050811"/>
    </radialGradient>

    <!-- AI glow effects -->
    <radialGradient id="aiGlow" cx="50%" cy="50%" r="50%">
      <stop offset="0%" stop-color="#00bfff" stop-opacity="0.8"/>
      <stop offset="100%" stop-color="#00bfff" stop-opacity="0"/>
    </radialGradient>
    
    <radialGradient id="techGlow" cx="50%" cy="50%" r="50%">
      <stop offset="0%" stop-color="#ff6b9d" stop-opacity="0.6"/>
      <stop offset="100%" stop-color="#ff6b9d" stop-opacity="0"/>
    </radialGradient>

    <!-- Network connections -->
    <filter id="glow">
      <feGaussianBlur stdDeviation="2" result="coloredBlur"/>
      <feMerge> 
        <feMergeNode in="coloredBlur"/>
        <feMergeNode in="SourceGraphic"/>
      </feMerge>
    </filter>

    <!-- Glass shadow -->
    <filter id="shadow" x="-50%" y="-50%" width="200%" height="200%">
      <feDropShadow dx="0" dy="18" stdDeviation="24" flood-color="#000000" flood-opacity="0.35"/>
    </filter>

    <!-- Light inner glow for the glass edge -->
    <linearGradient id="glassEdge" x1="0" y1="0" x2="1" y2="1">
      <stop offset="0%" stop-color="rgba(255,255,255,0.65)"/>
      <stop offset="100%" stop-color="rgba(255,255,255,0.15)"/>
    </linearGradient>

    <!-- Top highlight -->
    <linearGradient id="highlight" x1="0" y1="0" x2="0" y2="1">
      <stop offset="0%" stop-color="rgba(255,255,255,0.55)"/>
      <stop offset="100%" stop-color="rgba(255,255,255,0)"/>
    </linearGradient>

    <!-- Icon Library Definitions -->
    
    <!-- Heroicons: Chart Bar -->
    <g id="chartBar">
      <path d="M3 13a1 1 0 011-1h1a1 1 0 011 1v3a1 1 0 01-1 1H4a1 1 0 01-1-1v-3zM8 8a1 1 0 011-1h1a1 1 0 011 1v8a1 1 0 01-1 1H9a1 1 0 01-1-1V8zM13 5a1 1 0 011-1h1a1 1 0 011 1v11a1 1 0 01-1 1h-1a1 1 0 01-1-1V5zM18 2a1 1 0 011-1h1a1 1 0 011 1v14a1 1 0 01-1 1h-1a1 1 0 01-1-1V2z"/>
    </g>

    <!-- Lucide: CPU -->
    <g id="cpuIcon">
      <rect x="4" y="4" width="16" height="16" rx="2"/>
      <rect x="9" y="9" width="6" height="6"/>
      <path d="M9 1v3M15 1v3M9 20v3M15 20v3M20 9h3M20 14h3M1 9h3M1 14h3"/>
    </g>

    <!-- Heroicons: Code Bracket -->
    <g id="codeBracket">
      <path d="M8.5 7.5l-3 3 3 3M15.5 7.5l3 3-3 3"/>
    </g>

    <!-- Lucide: Brain -->
    <g id="brainIcon">
      <path d="M12 4.5C13.5 3 15.5 3 17 4.5c2 2-1 8-5 8s-7-6-5-8zM12 4.5C10.5 3 8.5 3 7 4.5c-2 2 1 8 5 8s7-6 5-8z"/>
      <path d="M12 12.5v7"/>
    </g>

    <!-- Heroicons: Server -->
    <g id="serverIcon">
      <rect x="2" y="2" width="20" height="8" rx="2" ry="2"/>
      <rect x="2" y="14" width="20" height="8" rx="2" ry="2"/>
      <line x1="6" y1="6" x2="6" y2="6"/>
      <line x1="6" y1="18" x2="6" y2="18"/>
    </g>

    <!-- Lucide: Network -->
    <g id="networkIcon">
      <circle cx="9" cy="12" r="1"/>
      <circle cx="9" cy="5" r="1"/>
      <circle cx="15" cy="5" r="1"/>
      <circle cx="15" cy="12" r="1"/>
      <path d="m9 11-6-6"/>
      <path d="m15 11 6-6"/>
      <path d="m9 13-6 6"/>
      <path d="m15 13 6 6"/>
    </g>

    <!-- Heroicons: Shield Check -->
    <g id="shieldCheck">
      <path d="M12 1l8.5 2.5v8c0 5.5-3.5 10.5-8.5 12-5-1.5-8.5-6.5-8.5-12v-8L12 1z"/>
      <path d="m9 12 2 2 4-4"/>
    </g>

    <!-- Lucide: Rocket -->
    <g id="rocketIcon">
      <path d="M4.5 16.5c-1.5 1.5-2 5 .5 6.5s5-1 6.5-.5L20 12l2-2-3-3-2 2z"/>
      <path d="M13.5 9.5L15 8"/>
      <path d="M6.5 12.5L5 14"/>
    </g>

    <!-- Heroicons: Cloud -->
    <g id="cloudIcon">
      <path d="M17.5 19H9a7 7 0 116.71-9h1.79a4.5 4.5 0 010 9z"/>
    </g>

    <!-- Lucide Database -->
    <g id="databaseIcon">
      <ellipse cx="12" cy="5" rx="9" ry="3"/>
      <path d="M21 12c0 1.66-4 3-9 3s-9-1.34-9-3"/>
      <path d="M3 5v14c0 1.66 4 3 9 3s9-1.34 9-3V5"/>
    </g>

    <!-- Curved Edges Clip Path -->
    <clipPath id="curvedEdges">
      <rect x="0" y="0" width="1200" height="360" rx="24" ry="24"/>
    </clipPath>
  </defs>="0 0 1200 360">
  <defs>
    <!-- Tech background gradient -->
    <radialGradient id="bg" cx="50%" cy="50%" r="70%">
      <stop offset="0%" stop-color="#1a1f3a"/>
      <stop offset="50%" stop-color="#0f1429"/>
      <stop offset="100%" stop-color="#050811"/>
    </radialGradient>

    <!-- AI glow effects -->
    <radialGradient id="aiGlow" cx="50%" cy="50%" r="50%">
      <stop offset="0%" stop-color="#00bfff" stop-opacity="0.8"/>
      <stop offset="100%" stop-color="#00bfff" stop-opacity="0"/>
    </radialGradient>
    
    <radialGradient id="techGlow" cx="50%" cy="50%" r="50%">
      <stop offset="0%" stop-color="#ff6b9d" stop-opacity="0.6"/>
      <stop offset="100%" stop-color="#ff6b9d" stop-opacity="0"/>
    </radialGradient>

    <!-- Network connections -->
    <filter id="glow">
      <feGaussianBlur stdDeviation="2" result="coloredBlur"/>
      <feMerge> 
        <feMergeNode in="coloredBlur"/>
        <feMergeNode in="SourceGraphic"/>
      </feMerge>
    </filter>

    <!-- Glass shadow -->
    <filter id="shadow" x="-50%" y="-50%" width="200%" height="200%">
      <feDropShadow dx="0" dy="18" stdDeviation="24" flood-color="#000000" flood-opacity="0.35"/>
    </filter>

    <!-- Light inner glow for the glass edge -->
    <linearGradient id="glassEdge" x1="0" y1="0" x2="1" y2="1">
      <stop offset="0%" stop-color="rgba(255,255,255,0.65)"/>
      <stop offset="100%" stop-color="rgba(255,255,255,0.15)"/>
    </linearGradient>

    <!-- Top highlight -->
    <linearGradient id="highlight" x1="0" y1="0" x2="0" y2="1">
      <stop offset="0%" stop-color="rgba(255,255,255,0.55)"/>
      <stop offset="100%" stop-color="rgba(255,255,255,0)"/>
    </linearGradient>

    <!-- Icon Library Definitions -->
    
    <!-- Heroicons: Chart Bar -->
    <g id="chartBar">
      <path d="M3 13a1 1 0 011-1h1a1 1 0 011 1v3a1 1 0 01-1 1H4a1 1 0 01-1-1v-3zM8 8a1 1 0 011-1h1a1 1 0 011 1v8a1 1 0 01-1 1H9a1 1 0 01-1-1V8zM13 5a1 1 0 011-1h1a1 1 0 011 1v11a1 1 0 01-1 1h-1a1 1 0 01-1-1V5zM18 2a1 1 0 011-1h1a1 1 0 011 1v14a1 1 0 01-1 1h-1a1 1 0 01-1-1V2z"/>
    </g>

    <!-- Lucide: CPU -->
    <g id="cpuIcon">
      <rect x="4" y="4" width="16" height="16" rx="2"/>
      <rect x="9" y="9" width="6" height="6"/>
      <path d="M9 1v3M15 1v3M9 20v3M15 20v3M20 9h3M20 14h3M1 9h3M1 14h3"/>
    </g>

    <!-- Heroicons: Code Bracket -->
    <g id="codeBracket">
      <path d="M8.5 7.5l-3 3 3 3M15.5 7.5l3 3-3 3"/>
    </g>

    <!-- Lucide: Brain -->
    <g id="brainIcon">
      <path d="M12 4.5C13.5 3 15.5 3 17 4.5c2 2-1 8-5 8s-7-6-5-8zM12 4.5C10.5 3 8.5 3 7 4.5c-2 2 1 8 5 8s7-6 5-8z"/>
      <path d="M12 12.5v7"/>
    </g>

    <!-- Heroicons: Server -->
    <g id="serverIcon">
      <rect x="2" y="2" width="20" height="8" rx="2" ry="2"/>
      <rect x="2" y="14" width="20" height="8" rx="2" ry="2"/>
      <line x1="6" y1="6" x2="6" y2="6"/>
      <line x1="6" y1="18" x2="6" y2="18"/>
    </g>

    <!-- Lucide: Network -->
    <g id="networkIcon">
      <circle cx="9" cy="12" r="1"/>
      <circle cx="9" cy="5" r="1"/>
      <circle cx="15" cy="5" r="1"/>
      <circle cx="15" cy="12" r="1"/>
      <path d="m9 11-6-6"/>
      <path d="m15 11 6-6"/>
      <path d="m9 13-6 6"/>
      <path d="m15 13 6 6"/>
    </g>

    <!-- Heroicons: Shield Check -->
    <g id="shieldCheck">
      <path d="M12 1l8.5 2.5v8c0 5.5-3.5 10.5-8.5 12-5-1.5-8.5-6.5-8.5-12v-8L12 1z"/>
      <path d="m9 12 2 2 4-4"/>
    </g>

    <!-- Lucide: Rocket -->
    <g id="rocketIcon">
      <path d="M4.5 16.5c-1.5 1.5-2 5 .5 6.5s5-1 6.5-.5L20 12l2-2-3-3-2 2z"/>
      <path d="M13.5 9.5L15 8"/>
      <path d="M6.5 12.5L5 14"/>
    </g>

    <!-- Heroicons: Cloud -->
    <g id="cloudIcon">
      <path d="M17.5 19H9a7 7 0 116.71-9h1.79a4.5 4.5 0 010 9z"/>
    </g>

    <!-- Lucide: Database -->
    <g id="databaseIcon">
      <ellipse cx="12" cy="5" rx="9" ry="3"/>
      <path d="M21 12c0 1.66-4 3-9 3s-9-1.34-9-3"/>
      <path d="M3 5v14c0 1.66 4 3 9 3s9-1.34 9-3V5"/>
    </g>
  </defs>

  <!-- Tech Background with Curved Edges -->
  <g clip-path="url(#curvedEdges)">
    <rect width="100%" height="100%" fill="url(#bg)"/>
  </g>

  <!-- All Content with Curved Clipping -->
  <g clip-path="url(#curvedEdges)">
    
  <!-- Neural Network Background -->
  <g opacity="0.3" stroke="#00bfff" stroke-width="0.5" fill="none">
    <!-- Network lines -->
    <path d="M50,80 Q300,120 600,100 T1150,140" stroke-opacity="0.4"/>
    <path d="M80,200 Q400,180 800,220 T1120,200" stroke-opacity="0.3"/>
    <path d="M100,300 Q500,280 900,320 T1100,280" stroke-opacity="0.4"/>
    <path d="M30,150 L200,120 L380,160 L560,130 L740,170 L920,140 L1170,180" stroke-opacity="0.2"/>
    
    <!-- Connection nodes -->
    <circle cx="50" cy="80" r="3" fill="#00bfff" opacity="0.6"/>
    <circle cx="300" cy="120" r="2" fill="#00bfff" opacity="0.5"/>
    <circle cx="600" cy="100" r="3" fill="#00bfff" opacity="0.7"/>
    <circle cx="1150" cy="140" r="2" fill="#00bfff" opacity="0.6"/>
    <circle cx="200" cy="120" r="2" fill="#ff6b9d" opacity="0.6"/>
    <circle cx="560" cy="130" r="3" fill="#ff6b9d" opacity="0.5"/>
    <circle cx="920" cy="140" r="2" fill="#00bfff" opacity="0.7"/>
  </g>

  <!-- Floating AI Elements -->
  <g opacity="0.4">
    <!-- Hexagonal tech elements -->
    <g transform="translate(100,50)" opacity="0.6">
      <polygon points="0,-24 20,-12 20,12 0,24 -20,12 -20,-12" fill="none" stroke="#00bfff" stroke-width="2"/>
      <polygon points="0,-16 14,-8 14,8 0,16 -14,8 -14,-8" fill="none" stroke="#00bfff" stroke-width="1" opacity="0.5"/>
    </g>
    
    <!-- Data visualization bars -->
    <g transform="translate(950,80)" opacity="0.7">
      <rect x="0" y="10" width="8" height="30" fill="#00bfff"/>
      <rect x="12" y="0" width="8" height="50" fill="#00bfff"/>
      <rect x="24" y="-10" width="8" height="60" fill="#ff6b9d"/>
      <rect x="36" y="5" width="8" height="40" fill="#00bfff"/>
      <rect x="48" y="-15" width="8" height="70" fill="#00bfff"/>
    </g>

    <!-- Circuit patterns -->
    <g transform="translate(80,280)" stroke="#00bfff" stroke-width="1.5" fill="none" opacity="0.5">
      <rect x="0" y="0" width="30" height="30" rx="4"/>
      <line x1="30" y1="15" x2="50" y2="15"/>
      <circle cx="60" cy="15" r="6"/>
      <line x1="66" y1="15" x2="86" y2="15"/>
    </g>

    <!-- Pie chart elements -->
    <g transform="translate(1050,250)">
      <circle cx="0" cy="0" r="40" fill="none" stroke="#00bfff" stroke-width="3" opacity="0.4" 
              stroke-dasharray="62.8 188.4"/>
      <circle cx="0" cy="0" r="30" fill="none" stroke="#ff6b9d" stroke-width="2" opacity="0.6" 
              stroke-dasharray="31.4 125.6"/>
    </g>
  </g>

  <!-- Animated AI glow effects -->
  <g opacity="0.6">
    <circle id="a" cx="240" cy="120" r="180" fill="url(#aiGlow)"/>
    <animate xlink:href="#a" attributeName="cx" values="240;300;200;240" dur="15s" repeatCount="indefinite"/>
    <animate xlink:href="#a" attributeName="cy" values="120;80;140;120" dur="12s" repeatCount="indefinite"/>

    <circle id="b" cx="980" cy="260" r="200" fill="url(#techGlow)" opacity="0.7"/>
    <animate xlink:href="#b" attributeName="cx" values="980;940;1020;980" dur="18s" repeatCount="indefinite"/>
    <animate xlink:href="#b" attributeName="cy" values="260;300;240;260" dur="14s" repeatCount="indefinite"/>
    
    <!-- Additional tech orbs -->
    <circle cx="1100" cy="100" r="120" fill="url(#aiGlow)" opacity="0.4"/>
    <circle cx="120" cy="300" r="140" fill="url(#techGlow)" opacity="0.5"/>
  </g>

  <!-- Tech Grid Overlay -->
  <g opacity="0.15" stroke="#00bfff" stroke-width="0.3" fill="none">
    <!-- Vertical lines -->
    <line x1="200" y1="0" x2="200" y2="360"/>
    <line x1="400" y1="0" x2="400" y2="360"/>
    <line x1="600" y1="0" x2="600" y2="360"/>
    <line x1="800" y1="0" x2="800" y2="360"/>
    <line x1="1000" y1="0" x2="1000" y2="360"/>
    
    <!-- Horizontal lines -->
    <line x1="0" y1="90" x2="1200" y2="90"/>
    <line x1="0" y1="180" x2="1200" y2="180"/>
    <line x1="0" y1="270" x2="1200" y2="270"/>
  </g>

  <!-- Floating Data Elements -->
  <g opacity="0.6" filter="url(#glow)">
    <!-- CPU/Chip representation -->
    <g transform="translate(150,60)">
      <rect x="0" y="0" width="60" height="60" rx="6" fill="none" stroke="#00bfff" stroke-width="2"/>
      <rect x="10" y="10" width="40" height="40" rx="4" fill="none" stroke="#00bfff" stroke-width="1"/>
      <circle cx="30" cy="30" r="6" fill="#00bfff" opacity="0.7"/>
    </g>

    <!-- Binary code stream -->
    <g transform="translate(700,50)" font-family="monospace" font-size="16" fill="#00bfff" opacity="0.4">
      <text x="0" y="0">1011001</text>
      <text x="0" y="24">0110101</text>
      <text x="0" y="48">1001011</text>
    </g>

    <!-- Signal waves -->
    <g transform="translate(850,300)" stroke="#ff6b9d" stroke-width="2" fill="none" opacity="0.5">
      <path d="M0,0 Q10,-20 20,0 T40,0 T60,0"/>
      <path d="M0,16 Q10,-4 20,16 T40,16 T60,16"/>
    </g>

    <!-- Analytics/Graph Icon -->
    <g transform="translate(50,180)" opacity="0.6">
      <rect x="0" y="0" width="50" height="40" fill="none" stroke="#00bfff" stroke-width="1.5" rx="4"/>
      <polyline points="8,32 15,20 25,24 35,12 42,16" fill="none" stroke="#00bfff" stroke-width="2"/>
      <circle cx="15" cy="20" r="2" fill="#00bfff"/>
      <circle cx="25" cy="24" r="2" fill="#00bfff"/>
      <circle cx="35" cy="12" r="2" fill="#ff6b9d"/>
    </g>

    <!-- Settings/Gear Icon -->
    <g transform="translate(300,80)" opacity="0.5">
      <circle cx="20" cy="20" r="12" fill="none" stroke="#ff6b9d" stroke-width="2"/>
      <circle cx="20" cy="20" r="6" fill="none" stroke="#ff6b9d" stroke-width="1"/>
      <rect x="18" y="2" width="4" height="6" fill="#ff6b9d"/>
      <rect x="18" y="32" width="4" height="6" fill="#ff6b9d"/>
      <rect x="2" y="18" width="6" height="4" fill="#ff6b9d"/>
      <rect x="32" y="18" width="6" height="4" fill="#ff6b9d"/>
    </g>

    <!-- Brain/AI Intelligence Icon -->
    <g transform="translate(500,30)" opacity="0.7">
      <path d="M15,10 Q25,5 35,10 Q40,15 35,25 Q30,35 20,35 Q10,35 5,25 Q0,15 5,10 Q10,5 15,10" 
            fill="none" stroke="#00bfff" stroke-width="2"/>
      <circle cx="15" cy="20" r="2" fill="#00bfff" opacity="0.8"/>
      <circle cx="25" cy="20" r="2" fill="#00bfff" opacity="0.8"/>
      <path d="M12,25 Q20,30 28,25" fill="none" stroke="#00bfff" stroke-width="1"/>
    </g>

    <!-- Database Icon -->
    <g transform="translate(900,50)" opacity="0.6">
      <ellipse cx="20" cy="10" rx="15" ry="5" fill="none" stroke="#00bfff" stroke-width="2"/>
      <ellipse cx="20" cy="20" rx="15" ry="5" fill="none" stroke="#00bfff" stroke-width="2"/>
      <ellipse cx="20" cy="30" rx="15" ry="5" fill="none" stroke="#00bfff" stroke-width="2"/>
      <line x1="5" y1="10" x2="5" y2="30" stroke="#00bfff" stroke-width="2"/>
      <line x1="35" y1="10" x2="35" y2="30" stroke="#00bfff" stroke-width="2"/>
    </g>

    <!-- Code Brackets Icon -->
    <g transform="translate(400,280)" opacity="0.5">
      <path d="M5,15 L10,10 L10,5 L15,5" fill="none" stroke="#ff6b9d" stroke-width="2"/>
      <path d="M5,15 L10,20 L10,25 L15,25" fill="none" stroke="#ff6b9d" stroke-width="2"/>
      <path d="M25,15 L20,10 L20,5 L15,5" fill="none" stroke="#ff6b9d" stroke-width="2"/>
      <path d="M25,15 L20,20 L20,25 L15,25" fill="none" stroke="#ff6b9d" stroke-width="2"/>
    </g>

    <!-- Network/Connection Icon -->
    <g transform="translate(750,200)" opacity="0.6">
      <circle cx="10" cy="10" r="4" fill="#00bfff" opacity="0.7"/>
      <circle cx="30" cy="10" r="4" fill="#00bfff" opacity="0.7"/>
      <circle cx="20" cy="25" r="4" fill="#ff6b9d" opacity="0.7"/>
      <line x1="10" y1="10" x2="30" y2="10" stroke="#00bfff" stroke-width="1.5"/>
      <line x1="10" y1="10" x2="20" y2="25" stroke="#00bfff" stroke-width="1.5"/>
      <line x1="30" y1="10" x2="20" y2="25" stroke="#ff6b9d" stroke-width="1.5"/>
    </g>

    <!-- Cloud/Server Icon -->
    <g transform="translate(1000,180)" opacity="0.5">
      <path d="M8,20 Q5,15 10,15 Q12,10 18,10 Q22,8 26,10 Q30,12 30,16 Q35,16 35,20 Q35,24 30,24 L10,24 Q5,24 5,20 Q5,16 8,20" 
            fill="none" stroke="#00bfff" stroke-width="2"/>
      <rect x="15" y="16" width="2" height="6" fill="#00bfff"/>
      <rect x="19" y="16" width="2" height="6" fill="#00bfff"/>
      <rect x="23" y="16" width="2" height="6" fill="#00bfff"/>
    </g>

    <!-- Rocket/Performance Icon -->
    <g transform="translate(200,250)" opacity="0.7">
      <path d="M15,5 L20,15 L15,25 L10,15 Z" fill="none" stroke="#ff6b9d" stroke-width="2"/>
      <circle cx="15" cy="12" r="2" fill="#ff6b9d" opacity="0.8"/>
      <path d="M8,20 L12,22 L8,24" fill="none" stroke="#ff6b9d" stroke-width="1.5"/>
      <path d="M22,20 L18,22 L22,24" fill="none" stroke="#ff6b9d" stroke-width="1.5"/>
    </g>

    <!-- Shield/Security Icon -->
    <g transform="translate(600,300)" opacity="0.6">
      <path d="M15,5 L25,10 L25,20 Q25,25 15,30 Q5,25 5,20 L5,10 Z" 
            fill="none" stroke="#00bfff" stroke-width="2"/>
      <path d="M10,15 L13,18 L20,11" fill="none" stroke="#00bfff" stroke-width="2"/>
    </g>

    <!-- Library Icons Section -->
    
    <!-- Heroicons Chart Bar -->
    <g transform="translate(120,120) scale(2)" opacity="0.7">
      <use href="#chartBar" fill="none" stroke="#00bfff" stroke-width="1"/>
    </g>

    <!-- Lucide CPU Icon -->
    <g transform="translate(450,120) scale(1.8)" opacity="0.6">
      <use href="#cpuIcon" fill="none" stroke="#ff6b9d" stroke-width="1"/>
    </g>

    <!-- Heroicons Code Bracket -->
    <g transform="translate(850,120) scale(2.5)" opacity="0.5">
      <use href="#codeBracket" fill="none" stroke="#00bfff" stroke-width="1.5"/>
    </g>

    <!-- Lucide Brain Icon -->
    <g transform="translate(320,200) scale(2)" opacity="0.8">
      <use href="#brainIcon" fill="none" stroke="#ff6b9d" stroke-width="1"/>
    </g>

    <!-- Heroicons Server -->
    <g transform="translate(1050,120) scale(1.5)" opacity="0.6">
      <use href="#serverIcon" fill="none" stroke="#00bfff" stroke-width="1"/>
    </g>

    <!-- Lucide Network -->
    <g transform="translate(180,280) scale(2)" opacity="0.7">
      <use href="#networkIcon" fill="none" stroke="#ff6b9d" stroke-width="1"/>
    </g>

    <!-- Heroicons Shield Check -->
    <g transform="translate(780,250) scale(1.8)" opacity="0.6">
      <use href="#shieldCheck" fill="none" stroke="#00bfff" stroke-width="1"/>
    </g>

    <!-- Lucide Rocket -->
    <g transform="translate(1150,250) scale(2)" opacity="0.7">
      <use href="#rocketIcon" fill="none" stroke="#ff6b9d" stroke-width="1"/>
    </g>

    <!-- Heroicons Cloud -->
    <g transform="translate(50,230) scale(2)" opacity="0.5">
      <use href="#cloudIcon" fill="none" stroke="#00bfff" stroke-width="1"/>
    </g>

    <!-- Lucide Database -->
    <g transform="translate(950,280) scale(1.6)" opacity="0.6">
      <use href="#databaseIcon" fill="none" stroke="#ff6b9d" stroke-width="1"/>
    </g>
  </g>

  <!-- Glass card with AI theme -->
  <g filter="url(#shadow)">
    <rect x="0" y="0" width="1200" height="360"
          fill="rgba(0,191,255,0.08)"/>

    <!-- top light streak -->
    <rect x="0" y="0" width="1200" height="48" fill="url(#highlight)" opacity="0.25"/>
  </g>

  

  <!-- Headline + sub with AI theme -->
  <g>
    <text x="600" y="155" text-anchor="middle"
          font-family="'Fira Code', 'JetBrains Mono', 'Source Code Pro', 'Roboto Mono', 'Consolas', 'Monaco', monospace"
          font-size="44" fill="#e0f7ff" style="font-weight:100; letter-spacing:1px">
      KASUN SHAKTHI
    </text>

    <text x="600" y="205" text-anchor="middle"
          font-family="'Fira Code', 'JetBrains Mono', 'Source Code Pro', 'Roboto Mono', 'Consolas', 'Monaco', monospace"
          font-size="18" fill="#b3e5ff" style="letter-spacing:3px; text-transform:uppercase; font-weight:500">
      Passionate about Web Apps and Real-time Systems
    </text>
    <text x="600" y="230" text-anchor="middle"
          font-family="'Fira Code', 'JetBrains Mono', 'Source Code Pro', 'Roboto Mono', 'Consolas', 'Monaco', monospace"
          font-size="14" fill="#80d1ff" style="letter-spacing:2px;  font-weight:400">
      Full-Stack Developer | Tech Enthusiast | Lifelong Learner
    </text>
    
    

    <!-- Tech indicator dots with AI theme -->
    <circle cx="430" cy="230" r="3" fill="#00bfff" opacity="0.9">
      <animate attributeName="opacity" values="0.9;0.3;0.9" dur="3s" repeatCount="indefinite"/>
    </circle>
    <circle cx="600" cy="230" r="3" fill="#ff6b9d" opacity="0.9">
      <animate attributeName="opacity" values="0.3;0.9;0.3" dur="3s" repeatCount="indefinite"/>
    </circle>
    <circle cx="770" cy="230" r="3" fill="#00bfff" opacity="0.9">
      <animate attributeName="opacity" values="0.9;0.3;0.9" dur="3s" repeatCount="indefinite"/>
    </circle>
  </g>
  
  </g> <!-- End curved clipping -->
  
  <!-- Curved Border -->
  <rect x="0" y="0" width="1200" height="360" rx="24" ry="24" 
        fill="none" stroke="rgba(255,255,255,0.15)" stroke-width="2"/>
</svg>
